<?xml version="1.0" standalone="no"?>
<!DOCTYPE svg PUBLIC "-//W3C//DTD SVG 20010904//EN"
 "http://www.w3.org/TR/2001/REC-SVG-20010904/DTD/svg10.dtd">
<svg version="1.0" xmlns="http://www.w3.org/2000/svg"
 width="543.000000pt" height="543.000000pt" viewBox="0 0 543.000000 543.000000"
 preserveAspectRatio="xMidYMid meet">
<metadata>
Created by potrace 1.11, written by Peter Selinger 2001-2013
</metadata>
<g transform="translate(0.000000,543.000000) scale(0.100000,-0.100000)"
fill="#000000" stroke="none">
<path d="M2580 5367 c-3 -2 -43 -7 -90 -11 -47 -3 -96 -8 -110 -10 -14 -3 -59
-10 -100 -16 -41 -7 -111 -21 -155 -32 -44 -10 -87 -21 -96 -23 -89 -20 -296
-94 -399 -142 -321 -149 -562 -316 -801 -553 -435 -432 -703 -993 -766 -1600
-9 -92 -11 -428 -2 -500 5 -41 11 -95 14 -120 14 -134 63 -335 124 -515 l38
-110 -37 -105 c-53 -153 -72 -227 -75 -290 -5 -107 34 -179 119 -219 55 -25
111 -33 256 -35 119 -2 119 -2 142 -31 74 -95 250 -274 348 -356 271 -224 563
-389 877 -494 103 -35 299 -86 373 -99 206 -34 284 -41 490 -41 223 0 289 5
505 40 22 4 94 20 160 36 687 170 1283 607 1655 1214 148 241 282 584 326 835
3 14 6 30 9 37 2 6 7 38 11 70 3 32 8 60 9 63 10 16 20 198 20 355 0 163 -8
293 -21 371 -42 254 -99 457 -180 646 -32 74 -32 79 -18 113 8 19 17 59 20 89
5 45 2 62 -20 106 -42 83 -104 122 -203 129 -6 1 -40 41 -76 90 -328 449 -782
783 -1307 964 -159 55 -368 104 -520 122 -25 3 -61 8 -80 11 -45 6 -434 16
-440 11z"/>
</g>
</svg>
